<svg xmlns="http://www.w3.org/2000/svg" width="37.793" height="24" viewBox="0 0 37.793 24">
    <defs>
        <style>
            .cls-1{fill:#fff;opacity:.598}
        </style>
    </defs>
    <path id="Icone_iclouds" d="M0 14.27a8.263 8.263 0 0 0 10.037 8.036.866.866 0 0 1 .714.165A7.916 7.916 0 0 0 15.559 24a7.878 7.878 0 0 0 4.892-1.594.854.854 0 0 1 .989-.054A10.579 10.579 0 0 0 27.128 24a10.712 10.712 0 0 0 0-21.423A10.583 10.583 0 0 0 22.3 3.735a.863.863 0 0 1-1.158-.374A6.36 6.36 0 0 0 15.462 0a6.243 6.243 0 0 0-6.286 5.2.863.863 0 0 1-.852.746A8.511 8.511 0 0 0 2.8 7.994 7.794 7.794 0 0 0 0 14.27zm15.877 7.551h-.122a1.348 1.348 0 0 1-1.348-1.348v-8.588a1.348 1.348 0 0 1 1.348-1.348h.122a1.348 1.348 0 0 1 1.348 1.348v8.589a1.348 1.348 0 0 1-1.348 1.348zm1.216-12.795a1.7 1.7 0 0 1-1.256.534 1.726 1.726 0 0 1-1.282-.544 1.825 1.825 0 0 1-.532-1.321 1.746 1.746 0 0 1 .527-1.277 1.774 1.774 0 0 1 2.538.01 1.8 1.8 0 0 1 .53 1.307 1.774 1.774 0 0 1-.525 1.292zm14.419 12.253a9.882 9.882 0 0 1-4.271.9 8.828 8.828 0 0 1-7.079-3.029 9.215 9.215 0 0 1-2.173-6.175 8.644 8.644 0 0 1 2.632-6.4 9.012 9.012 0 0 1 6.6-2.6 9.572 9.572 0 0 1 4.323.96 8.459 8.459 0 0 1 2.589 1.972.863.863 0 0 1-.113 1.254l-.006.005a.859.859 0 0 1-1.16-.095 7.249 7.249 0 0 0-2.175-1.628 7.763 7.763 0 0 0-3.434-.76 7.514 7.514 0 0 0-3.789 1 7.1 7.1 0 0 0-2.7 2.675 7.477 7.477 0 0 0-.959 3.775 7.14 7.14 0 0 0 2.144 5.291 7.386 7.386 0 0 0 5.409 2.124 7.459 7.459 0 0 0 5.5-2.3.858.858 0 0 1 1.133-.07.863.863 0 0 1 .1 1.281 8.659 8.659 0 0 1-2.561 1.825z" class="cls-1" data-name="Icone iclouds"/>
</svg>
